PathFileType	4	(X/Y/Z)	C:\Users\chris\Documents\GitHub\baseballds\vids\pitch5_Sports2D\pitch5_Sports2D_m_person02.trc
DataRate	CameraRate	NumFrames	NumMarkers	Units	OrigDataRate	OrigDataStartFrame	OrigNumFrames
30	30	8	22	m	30	130	149
Frame#	Time	Hip			RHip			RKnee			RAnkle			RBigToe			RSmallToe			RHeel			LHip			LKnee			LAnkle			LBigToe			LSmallToe			LHeel			Neck			Head			Nose			RShoulder			RElbow			RWrist			LShoulder			LElbow			LWrist		
		X1	Y1	Z1	X2	Y2	Z2	X3	Y3	Z3	X4	Y4	Z4	X5	Y5	Z5	X6	Y6	Z6	X7	Y7	Z7	X8	Y8	Z8	X9	Y9	Z9	X10	Y10	Z10	X11	Y11	Z11	X12	Y12	Z12	X13	Y13	Z13	X14	Y14	Z14	X15	Y15	Z15	X16	Y16	Z16	X17	Y17	Z17	X18	Y18	Z18	X19	Y19	Z19	X20	Y20	Z20	X21	Y21	Z21	X22	Y22	Z22
130	4.333333333333333	3.4616610854144256	1.276243860190245	0.0	3.4721702713820286	1.2611553196958984	0.0	3.4664136434271504	1.1917594461719965	0.0	3.444827994766005	1.1432193410030764	0.0	3.4502949020050493	1.1207718720362438	0.0	3.44948442777526	1.120042470409269	0.0	3.4393529138916223	1.137201399194894	0.0	3.4481702982557407	1.262402557522459	0.0	3.4590024107894983	1.205460478878391	0.0	3.462170385340961	1.1416465686096342	0.0	3.4689918690052046	1.1304968692919162	0.0	3.466638773898135	1.1345652381983937	0.0	3.459438931906763	1.1330805018549674	0.0	3.4745882044675005	1.3575350762878642	0.0	3.47533865501716	1.3754012449249546	0.0	3.473146254914925	1.3746362854393426	0.0	3.5015108099134307	1.3462994537986914	0.0	3.520695859156416	1.307367459377747	0.0	3.497844151622344	1.3172000339257406	0.0	3.4423499984962005	1.347347274578454	0.0	3.418543374231668	1.323677645942505	0.0	3.4273067298286244	1.300597822185539	0.0
131	4.366666666666666	3.467506337278584	1.2781819630135307	0.0	3.4780111932232174	1.2635185953393966	0.0	3.472476424126572	1.196966648308	0.0	3.448186256910863	1.155162417225785	0.0	3.454367513159548	1.1305846655402718	0.0	3.452829487996682	1.1304746459023127	0.0	3.4429544133855576	1.1519122225948413	0.0	3.4543033016075206	1.2643188062183408	0.0	3.4637744758819835	1.2027762405334674	0.0	3.4726195308486294	1.14146827431665	0.0	3.4819191639614138	1.1330995052578656	0.0	3.4762653651465905	1.136211475258716	0.0	3.4681085097332485	1.1319340321810567	0.0	3.478173196122709	1.359281923490777	0.0	3.4780583809216923	1.3769214108752657	0.0	3.4755927601937686	1.376821913710369	0.0	3.505709720196417	1.3480316124373486	0.0	3.5277579928385236	1.3091085878787072	0.0	3.4999055850144742	1.3179829115396886	0.0	3.4467323173745488	1.3488263872346582	0.0	3.425634119787542	1.3220158176900303	0.0	3.4341505713691856	1.2997630532359665	0.0
132	4.4	3.4734930196698084	1.2772504493808585	0.0	3.4846175630468226	1.2650345216954897	0.0	3.4802132793519127	1.2014059009585385	0.0	3.4549507882321318	1.1709201801679925	0.0	3.4608321819849275	1.1457461103086506	0.0	3.4596419885429475	1.1458363799917182	0.0	3.44882421951641	1.1715809721690975	0.0	3.45947039788872	1.2660089140941426	0.0	3.467916537974696	1.1997646936977193	0.0	3.4802404730431884	1.140561282016554	0.0	3.4911661579797815	1.132280955810704	0.0	3.4835009078926613	1.1347951869442865	0.0	3.4750476238428756	1.131019778529401	0.0	3.482287819302995	1.3589094983748882	0.0	3.481790152259017	1.3780172916429976	0.0	3.479932678754662	1.3763927942965277	0.0	3.50986953911684	1.3474799058924656	0.0	3.5340976976886096	1.3078471353448011	0.0	3.5060910088656208	1.3083574737450494	0.0	3.4522102766992924	1.3480478248035686	0.0	3.4321098175407827	1.3187329033066728	0.0	3.441614548758465	1.296767646224723	0.0
133	4.433333333333334	3.4787863219167092	1.2747337992068102	0.0	3.4912175848451743	1.2670704516798637	0.0	3.4886590547812864	1.2034825466578423	0.0	3.4665347861326734	1.1871058787429423	0.0	3.4699473057750456	1.1626803576558002	0.0	3.4718730549264065	1.1627125138376755	0.0	3.4583290047251456	1.191503704813837	0.0	3.463396890948665	1.2683230597285056	0.0	3.4721064373695527	1.1991428269434976	0.0	3.48409033575671	1.1405219607659651	0.0	3.4951669182390406	1.1311715246643965	0.0	3.4881969448402566	1.1342793206299702	0.0	3.4798888434334763	1.131964670941447	0.0	3.486640157936701	1.3559921534705848	0.0	3.486383381580267	1.3802471191591834	0.0	3.4862137937951285	1.3735776157060577	0.0	3.513669604627712	1.3450905664825294	0.0	3.538434263490972	1.3052193016227671	0.0	3.5150860532796466	1.2948492563045064	0.0	3.45814223376081	1.3447512483335313	0.0	3.4375399277713563	1.3128433264867019	0.0	3.447501517514511	1.2917522213658654	0.0
134	4.466666666666667	3.483407201519931	1.271149082262593	0.0	3.497413488106388	1.268607687151509	0.0	3.497922287211784	1.202456072466011	0.0	3.479693015576317	1.1963939826107521	0.0	3.481431015512628	1.1757012194447565	0.0	3.4868805468097053	1.1753847760707403	0.0	3.4705444825940552	1.2038158179419787	0.0	3.4671099442286293	1.2695976613596802	0.0	3.476585062615384	1.2002950388908253	0.0	3.4844456301146565	1.144182317775339	0.0	3.494792119158549	1.1345457944301067	0.0	3.490184818772317	1.1409429847840187	0.0	3.4827550276535577	1.1371163610936992	0.0	3.490855268275345	1.3508820687102376	0.0	3.491193691053566	1.3829590907442908	0.0	3.4927231288103244	1.3694880183211087	0.0	3.517435038086199	1.3412088961889166	0.0	3.5407203344949147	1.3020644958524004	0.0	3.524656067776335	1.2822166905684964	0.0	3.463664295447158	1.33948104287728	0.0	3.442308885591961	1.3048591066231678	0.0	3.4513012842788164	1.2848843464223112	0.0
135	4.5	3.4885105047058294	1.2656153268590433	0.0	3.503712967669322	1.2659144920829244	0.0	3.508861173896172	1.1986085505269144	0.0	3.488253043513121	1.1912079313045574	0.0	3.4931279072534527	1.181070917566564	0.0	3.4990702759119663	1.1804462194335905	0.0	3.4826265631346494	1.2052162335009362	0.0	3.4718660744376915	1.2660794220360103	0.0	3.480671311167649	1.1994256863680284	0.0	3.4835749094319004	1.1487343507019294	0.0	3.49320959076833	1.141035842826089	0.0	3.4903476855504585	1.1514876413114186	0.0	3.484310441782118	1.143568797013893	0.0	3.4946673510815356	1.345604949592497	0.0	3.495577629634594	1.3839816451957938	0.0	3.497347455200959	1.3655608869947622	0.0	3.5214363370290958	1.3366424516048176	0.0	3.5422832356651974	1.2976117109326655	0.0	3.533208761395808	1.272252697934443	0.0	3.4678753344070823	1.3336083752065855	0.0	3.4473655860529324	1.296932493456187	0.0	3.455481107176784	1.2785410227527634	0.0
136	4.533333333333333	3.4948537692166237	1.2586864656298815	0.0	3.5106905171588862	1.2589858000399583	0.0	3.5201415771401634	1.1946714534794158	0.0	3.4905376181416896	1.1727836219616772	0.0	3.5022674421729354	1.1789754919840583	0.0	3.506587492267456	1.1787290234212315	0.0	3.4932889945518837	1.2007985713043239	0.0	3.477816934463558	1.2580993806759357	0.0	3.4835393264422385	1.1951851352746452	0.0	3.483784785699128	1.1478072307599068	0.0	3.4931765008115967	1.143750960518407	0.0	3.489728086948963	1.1542683318337468	0.0	3.4850674149566125	1.144791805090018	0.0	3.4984590666476443	1.3428232515031078	0.0	3.4995544664839784	1.3837963077722808	0.0	3.500433974425728	1.3632987557623142	0.0	3.525557407293089	1.33336355796562	0.0	3.5444630668237473	1.2926360934292458	0.0	3.5405394113994655	1.2670880367412762	0.0	3.4712545069547365	1.329509288721375	0.0	3.45354257507658	1.2915739791863545	0.0	3.462721808169081	1.276925237819773	0.0
137	4.566666666666666	3.501411548953314	1.2548085616091031	0.0	3.517589480683	1.2546108540606538	0.0	3.526864487242464	1.1953626526047285	0.0	3.492223482696776	1.1560090116303599	0.0	3.508508882981946	1.1727600205963002	0.0	3.511835156847868	1.1737223858192438	0.0	3.503234472328201	1.1970338506734686	0.0	3.4839379538670694	1.252570520912866	0.0	3.48560419722981	1.1926458978532701	0.0	3.4853782329478427	1.1415889813470117	0.0	3.4947009114628953	1.1402502092212656	0.0	3.488683757175398	1.1461516795487368	0.0	3.485574021540899	1.1397829916726092	0.0	3.503190261286535	1.3441079253010018	0.0	3.5037973245003133	1.3851588617786288	0.0	3.504276260436935	1.3640626211294973	0.0	3.5297018632273596	1.3338966207680125	0.0	3.5475983255224013	1.2919132813730432	0.0	3.5463109542134417	1.2737866672215106	0.0	3.47568842555794	1.3303384356438335	0.0	3.461112833685767	1.291935110628206	0.0	3.47303116261641	1.2839856505664262	0.0
